<svg xmlns="http://www.w3.org/2000/svg" viewBox="0 0 32 32">
  <defs>
    <linearGradient id="grad" x1="0%" y1="0%" x2="100%" y2="100%">
      <stop offset="0%" style="stop-color:#4f46e5"/>
      <stop offset="100%" style="stop-color:#7c3aed"/>
    </linearGradient>
  </defs>
  <rect width="32" height="32" rx="6" fill="url(#grad)"/>
  <path fill="white" d="M16 6l1.5 2.5h3l1.5-2.5h2l1 2.5-2 2 .5 1.5 2.5.5v2l-2.5 1-.5 1.5 2 2-1 2.5h-2l-1.5-2.5h-3L14 26h-2l-1-2.5 2-2-.5-1.5-2.5-.5v-2l2.5-1 .5-1.5-2-2 1-2.5h2zM16 12a4 4 0 100 8 4 4 0 000-8z"/>
</svg>
